<?xml version="1.0" standalone="no"?>
<!DOCTYPE svg PUBLIC "-//W3C//DTD SVG 20010904//EN"
 "http://www.w3.org/TR/2001/REC-SVG-20010904/DTD/svg10.dtd">
<svg version="1.0" xmlns="http://www.w3.org/2000/svg"
 width="1024.000000pt" height="1024.000000pt" viewBox="0 0 1024.000000 1024.000000"
 preserveAspectRatio="xMidYMid meet">

<g transform="translate(0.000000,1024.000000) scale(0.100000,-0.100000)"
fill="#000000" stroke="none">
<path d="M5040 8124 c-86 -3 -213 -17 -305 -34 -27 -5 -79 -14 -115 -21 -58
-10 -196 -48 -305 -84 -182 -60 -432 -177 -613 -286 -148 -89 -414 -309 -552
-456 -114 -122 -222 -244 -256 -288 -122 -161 -328 -530 -374 -672 -13 -37
-35 -93 -50 -123 -15 -30 -33 -84 -39 -120 -7 -36 -23 -103 -37 -150 -24 -83
-39 -164 -64 -340 -16 -113 -8 -489 14 -685 15 -127 41 -254 95 -460 18 -71
88 -268 121 -340 31 -69 43 -94 106 -210 104 -193 97 -182 267 -414 76 -103
281 -320 382 -404 28 -23 87 -74 131 -114 45 -39 95 -78 111 -86 16 -9 67 -41
113 -73 119 -79 493 -264 537 -264 11 0 53 -14 94 -31 41 -17 103 -37 139 -44
36 -8 98 -23 139 -34 134 -37 317 -55 571 -55 290 0 495 17 610 51 47 14 110
31 140 38 223 50 552 185 750 308 236 146 331 214 465 331 218 190 522 552
606 723 14 30 33 61 41 71 24 27 95 173 108 222 6 25 23 64 36 87 35 60 105
277 111 343 3 30 13 82 23 115 43 147 64 376 57 649 -6 219 -20 351 -56 506
-6 25 -15 75 -21 113 -5 37 -19 93 -31 125 -12 31 -29 86 -39 123 -10 36 -34
97 -54 136 -20 39 -36 77 -36 85 0 20 -100 216 -131 258 -15 19 -32 51 -39 71
-7 19 -35 64 -61 100 -27 35 -77 105 -110 154 -136 198 -313 371 -653 636
-132 103 -466 290 -596 333 -25 8 -83 29 -130 46 -164 61 -357 111 -500 130
-47 6 -110 15 -140 20 -63 10 -335 19 -460 14z m415 -679 c199 -27 343 -66
536 -145 762 -310 1294 -1026 1380 -1859 23 -222 -2 -531 -60 -757 -133 -519
-455 -968 -911 -1274 -499 -335 -1137 -453 -1728 -320 -183 41 -330 94 -504
181 -132 66 -208 114 -343 215 -205 154 -349 305 -495 520 -321 471 -446 1080
-339 1644 89 467 309 876 645 1201 383 370 852 576 1394 613 89 6 317 -4 425
-19z"/>
<path d="M5055 7264 c-22 -2 -87 -8 -145 -14 -358 -35 -768 -215 -1050 -462
-363 -318 -597 -735 -681 -1213 -27 -156 -32 -450 -10 -605 127 -896 818
-1588 1713 -1715 135 -19 403 -19 552 0 303 40 597 150 851 320 569 379 896
982 897 1655 1 196 -14 315 -63 503 -129 494 -444 934 -871 1211 -107 70 -323
174 -443 215 -115 39 -278 78 -380 90 -95 12 -314 21 -370 15z m825 -533 c73
-38 102 -145 58 -211 -34 -50 -71 -72 -125 -77 -94 -8 -167 63 -166 160 2 114
129 184 233 128z m-1365 -116 l40 -34 -42 -42 -42 -42 -40 34 c-21 19 -40 38
-40 44 -1 12 60 75 73 75 6 0 29 -16 51 -35z m706 -705 l-7 -535 -59 120 -60
120 -3 239 c-3 275 7 351 64 476 37 79 63 124 69 118 2 -2 0 -244 -4 -538z
m-1034 329 c19 -12 48 -43 64 -68 56 -87 31 -192 -59 -256 -38 -26 -53 -30
-107 -30 -54 0 -70 4 -107 30 -104 72 -116 212 -27 297 22 21 54 42 72 47 46
15 123 5 164 -20z m2076 -147 l37 -38 -40 -39 -40 -39 -42 41 -42 42 39 35
c22 19 42 35 45 36 3 0 23 -17 43 -38z m-1338 -345 c6 -47 3 -61 -21 -108 -24
-45 -28 -66 -28 -124 1 -82 17 -127 70 -185 31 -34 117 -90 139 -90 3 0 5 66
6 148 l1 147 23 -50 c14 -27 45 -94 70 -148 44 -93 47 -97 73 -91 39 10 61 22
109 60 92 75 125 219 75 328 -19 41 -21 60 -16 108 4 32 10 58 13 58 18 0 83
-82 108 -135 23 -51 27 -73 27 -150 0 -80 -3 -97 -31 -157 -59 -125 -170 -208
-308 -229 -318 -50 -553 224 -444 516 18 50 100 155 119 155 5 0 12 -24 15
-53z m1090 -67 c21 -22 37 -41 34 -42 -2 -2 -21 -19 -42 -37 l-37 -35 -40 39
-40 39 38 38 c20 21 39 38 42 38 3 0 23 -18 45 -40z m-2379 -220 c261 -138
549 -249 763 -296 64 -14 130 -29 146 -33 18 -5 -137 -9 -380 -10 l-410 -1
-120 131 c-151 165 -205 228 -205 239 0 16 31 40 52 40 11 0 81 -32 154 -70z
m3278 54 c9 -8 16 -19 16 -24 0 -11 -56 -74 -210 -241 l-115 -124 -410 -5
c-225 -3 -416 -2 -424 1 -8 4 17 12 55 18 278 49 639 180 934 339 101 55 129
61 154 36z m-844 -502 l415 -3 -30 -25 c-118 -99 -362 -237 -550 -312 -595
-236 -1252 -172 -1816 178 -96 60 -220 151 -215 159 4 6 1376 8 2196 3z"/>
</g>
</svg>
